<svg width="148.000000" height="105.000000" viewBox="0 0 148 105" fill="none" xmlns="http://www.w3.org/2000/svg" xmlns:xlink="http://www.w3.org/1999/xlink">
	<desc>
			Created with Pixso.
	</desc>
	<defs>
		<clipPath id="clip1_84">
			<rect id="logo" width="148.000000" height="105.000000" fill="white" fill-opacity="0"/>
		</clipPath>
	</defs>
	<rect id="logo" width="148.000000" height="105.000000" fill="#FFFFFF" fill-opacity="0"/>
	<g clip-path="url(#clip1_84)">
		<path id="Vector" d="M135.43 2.78L135.43 97.63L11.38 97.63L11.38 2.78L135.43 2.78Z" stroke="#000000" stroke-opacity="1.000000" stroke-width="6.000000"/>
		<path id="Vector" d="M25.2 34.63C22.86 34.63 20.75 34.17 18.86 33.24C16.98 32.31 15.35 31.05 13.98 29.47C12.62 27.86 11.55 26.06 10.79 24.08C10.06 22.06 9.7 20 9.7 17.89C9.7 15.69 10.09 13.6 10.88 11.62C11.67 9.6 12.77 7.82 14.17 6.27C15.56 4.69 17.21 3.45 19.09 2.55C21.01 1.62 23.08 1.16 25.29 1.16C27.61 1.16 29.7 1.64 31.59 2.6C33.5 3.56 35.13 4.85 36.47 6.46C37.84 8.07 38.89 9.87 39.62 11.85C40.38 13.83 40.76 15.86 40.76 17.94C40.76 20.14 40.36 22.25 39.57 24.26C38.81 26.25 37.73 28.03 36.33 29.61C34.93 31.16 33.28 32.38 31.36 33.28C29.48 34.18 27.42 34.63 25.2 34.63ZM14.9 17.89C14.9 19.44 15.14 20.95 15.63 22.4C16.11 23.86 16.8 25.16 17.68 26.31C18.59 27.42 19.68 28.31 20.96 28.96C22.24 29.61 23.67 29.94 25.25 29.94C26.89 29.94 28.35 29.59 29.63 28.91C30.9 28.23 31.97 27.32 32.82 26.17C33.7 24.99 34.37 23.69 34.83 22.26C35.28 20.81 35.51 19.35 35.51 17.89C35.51 16.34 35.27 14.86 34.78 13.43C34.33 11.97 33.64 10.69 32.73 9.57C31.82 8.43 30.72 7.53 29.45 6.88C28.2 6.22 26.8 5.9 25.25 5.9C23.61 5.9 22.15 6.24 20.87 6.92C19.59 7.6 18.51 8.52 17.63 9.67C16.75 10.81 16.07 12.1 15.58 13.52C15.12 14.95 14.9 16.41 14.9 17.89ZM87.23 1.39L87.23 34.4L82.07 34.4L82.07 19.85L65.75 19.85L65.75 34.4L60.64 34.4L60.64 1.39L65.75 1.39L65.75 15.2L82.07 15.2L82.07 1.39L87.23 1.39ZM122.58 34.63C120.24 34.63 118.13 34.17 116.24 33.24C114.36 32.31 112.73 31.05 111.36 29.47C109.99 27.86 108.93 26.06 108.17 24.08C107.44 22.06 107.08 20 107.08 17.89C107.08 15.69 107.47 13.6 108.26 11.62C109.05 9.6 110.15 7.82 111.55 6.27C112.94 4.69 114.59 3.45 116.47 2.55C118.39 1.62 120.45 1.16 122.67 1.16C124.98 1.16 127.08 1.64 128.97 2.6C130.88 3.56 132.51 4.85 133.85 6.46C135.22 8.07 136.26 9.87 136.99 11.85C137.75 13.83 138.13 15.86 138.13 17.94C138.13 20.14 137.74 22.25 136.95 24.26C136.19 26.25 135.11 28.03 133.71 29.61C132.31 31.16 130.65 32.38 128.74 33.28C126.85 34.18 124.8 34.63 122.58 34.63ZM112.27 17.89C112.27 19.44 112.52 20.95 113 22.4C113.49 23.86 114.18 25.16 115.06 26.31C115.97 27.42 117.06 28.31 118.34 28.96C119.62 29.61 121.05 29.94 122.63 29.94C124.27 29.94 125.73 29.59 127.01 28.91C128.28 28.23 129.35 27.32 130.2 26.17C131.08 24.99 131.75 23.69 132.21 22.26C132.66 20.81 132.89 19.35 132.89 17.89C132.89 16.34 132.65 14.86 132.16 13.43C131.7 11.97 131.02 10.69 130.11 9.57C129.2 8.43 128.1 7.53 126.82 6.88C125.58 6.22 124.18 5.9 122.63 5.9C120.99 5.9 119.53 6.24 118.25 6.92C116.97 7.6 115.89 8.52 115.01 9.67C114.13 10.81 113.45 12.1 112.96 13.52C112.5 14.95 112.27 16.41 112.27 17.89ZM35.75 38.54L24.99 38.54L24.99 66.94L19.83 66.94L19.83 38.54L9.02 38.54L9.02 33.93L35.75 33.93L35.75 38.54ZM67.32 62.34L67.32 66.94L45.11 66.94L45.11 33.93L66.91 33.93L66.91 38.54L50.22 38.54L50.22 47.93L64.67 47.93L64.67 52.25L50.22 52.25L50.22 62.34L67.32 62.34ZM77.65 66.94L77.65 33.93L100.41 33.93L100.41 38.49L82.76 38.49L82.76 47.74L92.25 47.74C95.83 47.74 98.52 48.61 100.32 50.35C102.11 52.05 103.01 54.31 103.01 57.13C103.01 59.02 102.61 60.71 101.82 62.2C101.06 63.66 99.91 64.82 98.36 65.69C96.84 66.52 94.91 66.94 92.56 66.94L77.65 66.94ZM82.76 62.39L91.88 62.39C93.28 62.39 94.4 62.12 95.26 61.6C96.14 61.07 96.76 60.4 97.13 59.6C97.52 58.76 97.72 57.89 97.72 56.99C97.72 56.09 97.55 55.26 97.22 54.48C96.88 53.71 96.27 53.09 95.39 52.62C94.54 52.13 93.34 51.88 91.79 51.88L82.76 51.88L82.76 62.39ZM135.03 62.34L135.03 66.94L112.82 66.94L112.82 33.93L134.62 33.93L134.62 38.54L117.93 38.54L117.93 47.93L132.39 47.93L132.39 52.25L117.93 52.25L117.93 62.34L135.03 62.34ZM35.63 66.48L35.63 99.49L30.48 99.49L30.48 84.93L14.15 84.93L14.15 99.49L9.05 99.49L9.05 66.48L14.15 66.48L14.15 80.29L30.48 80.29L30.48 66.48L35.63 66.48ZM53.2 66.48L58.04 66.48L70.62 99.49L65.24 99.49L61.82 90.51L49.32 90.51L45.95 99.49L40.52 99.49L53.2 66.48ZM60.82 86.65L55.62 72.2L50.24 86.65L60.82 86.65ZM70.43 105.81L70.43 94.88L71.98 94.88C72.83 94.88 73.56 94.54 74.17 93.86C74.81 93.18 75.34 92.09 75.77 90.61C76.22 89.12 76.57 87.17 76.82 84.75C77.09 82.3 77.29 79.31 77.41 75.78L77.64 66.48L98.48 66.48L98.48 94.88L102.59 94.88L102.59 105.81L98.07 105.81L98.07 99.49L74.95 99.49L74.95 105.81L70.43 105.81ZM78.46 94.88L93.33 94.88L93.33 71.08L82.38 71.08L82.25 76.47C82.15 80.04 81.97 83.06 81.7 85.54C81.42 87.99 81.03 89.97 80.51 91.49C80 93.01 79.31 94.14 78.46 94.88ZM122.4 99.72C120.06 99.72 117.95 99.25 116.06 98.32C114.18 97.39 112.55 96.14 111.18 94.56C109.81 92.95 108.75 91.15 107.99 89.17C107.26 87.15 106.89 85.09 106.89 82.98C106.89 80.78 107.29 78.69 108.08 76.71C108.87 74.69 109.97 72.91 111.36 71.36C112.76 69.78 114.4 68.54 116.29 67.64C118.21 66.71 120.27 66.25 122.49 66.25C124.8 66.25 126.9 66.73 128.79 67.69C130.7 68.65 132.33 69.93 133.67 71.54C135.03 73.16 136.08 74.95 136.81 76.94C137.57 78.92 137.95 80.95 137.95 83.03C137.95 85.23 137.56 87.34 136.77 89.35C136.01 91.33 134.93 93.12 133.53 94.7C132.13 96.25 130.47 97.47 128.56 98.37C126.67 99.27 124.62 99.72 122.4 99.72ZM112.09 82.98C112.09 84.53 112.34 86.03 112.82 87.49C113.31 88.95 113.99 90.25 114.88 91.4C115.79 92.51 116.88 93.4 118.16 94.05C119.44 94.7 120.87 95.02 122.45 95.02C124.09 95.02 125.55 94.68 126.83 94C128.1 93.32 129.17 92.4 130.02 91.26C130.9 90.08 131.57 88.78 132.03 87.35C132.48 85.9 132.71 84.44 132.71 82.98C132.71 81.43 132.47 79.94 131.98 78.52C131.52 77.06 130.84 75.78 129.93 74.66C129.01 73.51 127.92 72.61 126.64 71.96C125.4 71.31 124 70.99 122.45 70.99C120.81 70.99 119.35 71.33 118.07 72.01C116.79 72.69 115.71 73.61 114.83 74.75C113.95 75.9 113.26 77.19 112.78 78.61C112.32 80.04 112.09 81.49 112.09 82.98Z" fill="#000000" fill-opacity="1.000000" fill-rule="nonzero"/>
	</g>
</svg>
